<?xml version="1.0" encoding="utf-8"?>
<svg viewBox="-186.459 -87.249 941.124 536.913" width="941.124" height="536.913" xmlns="http://www.w3.org/2000/svg">
  <path d="M 781.66 223.03 C 788.16 225.48 791.09 230.86 794.49 236.47 C 799.14 245.81 801.66 255.71 802.88 266.04 C 804.47 273.72 804.77 281.53 806.16 289.23 C 807.93 303.17 807.58 317.06 806.1 331 C 805.03 340.41 801.03 348.88 798.19 358.12 C 795.61 365.31 792.05 372.02 788.95 378.92 C 786.81 384.29 783.53 388.5 780.57 393.5 C 775.43 402.33 770.4 411.01 764.09 419.07 C 757.18 429.45 748.7 438.15 739.83 446.82 C 738.28 448.29 738.46 450 738.32 451.96 C 738.27 455.89 738.12 459.59 739.64 463.31 C 741.41 468.65 744.83 472.61 747.42 477.51 C 750.96 484.47 755.73 490.67 759.6 497.46 C 771.92 497.78 784.43 495.73 796.44 493.15 C 803.75 491.73 811.23 490.82 818.48 489.13 C 822.69 487.93 826.85 487.68 830.73 485.48 C 829.97 482.68 829.16 479.99 829.27 477.05 C 829.56 467.38 829.07 457.71 829.53 448.03 C 829.46 440.48 829.28 433.11 830.14 425.53 C 830.52 421.52 830.13 417.35 830.59 413.33 C 831.06 410.28 833.16 407.88 836.3 407.46 C 838.51 407.19 841.93 406.67 843.64 408.45 C 845.73 409.91 846.33 412.92 846.62 415.3 C 847.17 426.65 846.04 437.83 844.62 449.07 C 844.28 459.43 842.69 469.67 842.51 480.04 C 842.46 482.36 842.03 485.01 842.7 487.26 C 846.24 489.57 850.47 490.84 854.24 492.77 C 860.39 495.89 866.63 498.58 873.07 501.02 C 878.64 503.86 883.81 507.19 889.71 509.41 C 896 512.88 902.73 515.27 908.67 519.33 C 911.4 521.17 914.94 522.14 914.83 526.09 C 914.91 532.52 910.34 538.91 908.57 545.09 C 906.86 551.67 903.92 557.65 902.89 564.43 C 909.11 564.84 915.57 565.61 921.54 567.49 C 923.45 568.07 925.02 569.19 926.53 570.45 C 930.39 573.68 934.28 576.66 937.23 580.8 C 941 585.2 942.53 590.49 943.69 596.05 C 944.71 601.17 943.68 605.89 943.52 611 C 943.23 617.34 942.29 623.75 941.18 629.97 C 939.78 638.87 942.1 647.98 949.17 653.9 C 952.02 655.95 956.4 655.78 959.73 655.48 C 965.94 654.75 970.49 649.16 970.43 642.99 C 970.61 639.43 969.22 636.41 967.63 633.32 C 965.71 629.72 961.14 630.53 961.25 625.7 C 964.79 625.46 968.13 625.27 971.54 626.47 C 980.31 629.02 984.69 640.83 980.91 648.81 C 979.13 653.96 975.39 657.97 970.89 660.91 C 966.26 663.73 961.32 663.82 956.06 663.53 C 950.08 663.38 944.1 660.13 939.16 656.96 C 933.07 650.51 930.45 642.38 929.02 633.78 C 927.96 626.78 930.12 621.08 930.46 614.02 C 931.36 606.96 932.3 599.65 930.48 592.63 C 929.67 589.64 929.18 586.39 926.94 584.08 C 923.38 580.3 920.38 576.66 915.3 574.89 C 911.87 573.33 908.44 573.53 904.78 573.6 C 904.46 577.41 903.72 581.15 903.34 584.94 C 900.87 585.95 899 587.31 896.23 586.3 C 892.67 585.05 890.96 582.34 889.01 579.34 C 887.07 580.22 885.28 581.15 883.84 582.78 C 878.02 588.68 872.72 596.44 872.17 604.95 C 871.59 610.95 870.19 617.13 871.1 622.99 C 871.85 633.11 874.96 642.68 879.28 651.8 C 881.76 656.91 883.53 663.39 887.98 667.03 C 889.6 668.58 890.92 669.85 891.07 672.23 C 891.68 678.75 891 685.47 890.88 691.98 C 892.11 700.38 891.31 708.57 891.59 717 C 891.77 726.78 891.19 736.71 892.16 746.45 C 899.79 746.28 908.44 742.67 916.04 744.09 C 924.11 745.36 931.49 745.38 937.98 751.09 C 940.06 752.47 939.64 754.63 938.96 756.69 C 934.73 759.13 928.91 759.15 924.13 759.34 C 915.55 759.02 906.85 759.97 898.31 759.17 C 894.25 758.44 887.77 757.42 885.53 753.5 C 883.67 748.2 883.5 742.47 883.75 736.92 C 883.94 731.53 882.349 716.661 880.429 715.871 C 871.479 724.251 861.98 733.42 850.98 739.02 C 838.92 744.11 828.95 750.31 815.46 750.86 C 800.67 751.05 785.72 748.69 771.68 743.98 C 767.45 742.78 763.13 741.82 758.77 741.26 C 758.39 745.06 758.08 749.16 756.88 752.8 C 756.45 753.78 755.85 755.45 754.65 755.62 C 745.36 758.15 735.33 757.09 726.04 756.54 C 719.36 756.67 712.79 756.29 706.31 754.57 C 704.17 753.89 702.29 753.16 701.52 750.85 C 701.9 748.81 703.28 746.94 705.16 746.03 C 708.81 744.22 712.95 742.69 716.91 741.74 C 727.58 739.88 737.95 739.12 748.13 743.55 C 750.76 741.32 751.149 740.713 751.109 736.703 C 745.539 735.363 743.81 733.21 739 730.18 C 730.18 726.08 722.33 719.55 715.32 712.88 C 710.99 709.42 706.61 706.25 703.24 701.77 C 695.56 693.38 688.28 684 683.31 673.73 C 678.65 666.7 676.24 658.96 672.67 651.4 C 669.51 645.48 668.11 638.77 665.71 632.38 C 662.84 624.52 662.41 616.77 660.96 608.49 C 660.25 604.41 660.63 600.4 660.11 596.27 C 659.39 590.57 659.83 584.75 659.57 579 C 659.31 573.24 660.52 567.84 661.52 562.22 C 662.63 555.27 664.12 548.37 665.82 541.55 C 669.09 531.19 672.73 520.56 678.2 511.14 C 680.55 505.98 684.04 501.6 686.78 496.67 C 689.94 491.28 693.47 486.15 696.77 480.86 C 698.97 477.57 702.4 475.62 704.28 472.05 C 708.32 465.29 714.23 460.59 719.19 454.65 C 717.77 453.08 714.87 451.48 715.03 449.13 C 716.42 447.26 718.62 445.47 720.72 444.47 C 723.24 443.91 726.06 444.9 728.64 444.7 C 731.65 443.39 730.37 438.27 731.18 435.53 C 733.97 435.22 736.5 435.65 738.86 433.86 C 746.83 428.72 749.36 420.57 756.44 414.43 C 762.17 407.59 766.72 399.55 770.81 391.64 C 774.55 385.52 777.23 378.89 780.8 372.67 C 785.07 366.49 786.35 358.48 789.29 351.33 C 793.23 341.48 793.99 331.34 795.52 320.99 C 796.48 312.08 796.97 303.23 795.52 294.34 C 794.17 285.63 793.66 276.79 792.72 268.04 C 791.93 259.1 789.77 250.46 786.99 241.96 C 784.65 235.46 780.37 231.1 776.25 225.82 C 777.7 224.18 779.14 221.53 781.66 223.03 Z" transform="matrix(1, 0, 0, 1, -227.608841, -309.83548)"/>
  <path d="M 304.47 268.78 C 306.72 268.39 309.31 267.9 311.55 268.48 C 311.86 270.91 312.02 273.74 311.09 276.05 C 308.37 277.64 305.19 278.51 302.16 279.32 C 291.66 281.53 280.83 282.54 270.4 285.1 C 270.3 294.37 270.84 303.74 270.25 313 C 269.46 318.67 269.73 324.3 269.76 330 C 270.78 347.59 269.96 365.43 270.3 383.04 C 270.32 385.62 270.91 388.08 271.53 390.56 C 268.38 390.67 265.23 390.8 262.08 390.7 C 262.32 387.92 263.09 385.21 263.34 382.44 C 264.07 358.68 263.46 334.86 263.75 311.08 C 264.04 307.37 264.41 303.68 264.58 299.96 C 264.74 296.22 266.22 291.82 265.18 288.22 C 264.11 287.1 262.57 286.55 261.03 286.84 C 250.9 288.3 241.71 290.73 231.25 290.51 C 227.1 290.32 227.98 285.38 227.32 282.5 C 231.81 281.18 236.36 280.83 241 280.53 C 247.78 279.57 254.38 277.55 261.18 276.66 C 275.83 274.9 290.03 271.57 304.47 268.78 Z" transform="matrix(1, 0, 0, 1, -227.608841, -309.83548)"/>
  <path d="M 333.55 270.58 C 334.26 273.98 332.2 277.35 332.43 280.93 C 332.76 292.95 332.09 305 332.27 317.04 C 331.87 323.09 331.32 329.1 331.57 335.19 C 335.62 334.26 337.98 331.53 341.2 329.17 C 344.86 326.52 347.97 323.31 351.74 320.79 C 355.33 318.31 359.6 316.71 363.57 314.7 C 366.61 313.19 369.7 312.68 372.99 311.85 C 375.05 311.41 377.44 310.82 379.5 311.53 C 381.99 312.39 383.77 314.36 384.1 317.02 C 385.34 331.37 384.22 345.73 385.29 360.04 C 385.53 363.84 384.59 367.51 384.73 371.31 C 384.79 376.64 386.4 383.03 385.32 388.3 C 383.17 391.33 380.25 390.83 377.05 390.31 C 379.11 381.54 378.12 372.89 378.51 364 C 378.39 351.31 378.6 338.63 378.82 325.94 C 378.92 322.6 378.26 319.57 375.35 317.58 C 372.33 316.56 369.59 318.62 367.13 320.1 C 363.3 322.71 359.09 324.52 355.41 327.36 C 347.64 333.27 340.29 339.5 334.2 347.19 C 333.3 348.34 331.8 349.7 331.65 351.21 C 331.35 355.46 331.78 359.83 332.16 364.07 C 332.63 370.97 331.54 377.45 332.85 384.4 C 333.36 386.51 333.03 388.51 332.72 390.62 C 330.01 390.76 327.29 390.81 324.58 390.78 C 327.05 374.12 324.51 357.59 326.61 340.87 C 326.4 322.67 326.2 304.33 326.56 286.13 C 326.58 283.19 326.87 280.03 326.26 277.14 C 325.8 275.39 323.71 273 325.11 271.29 C 326.62 268.26 331.75 267.36 333.55 270.58 Z" transform="matrix(1, 0, 0, 1, -227.608841, -309.83548)"/>
  <path d="M 461.51 309.67 C 465.21 310.53 468.38 312.24 470.89 315.11 C 473.86 318.57 477.45 322.26 477.69 327.07 C 477.81 329.24 478.29 331.8 476.45 333.42 C 471.1 338.64 464.28 339.35 457.54 341.76 C 450.17 344.34 442.9 344.48 435.35 346.24 C 430.15 347.51 425.79 346.91 421.09 349.13 C 419.47 349.82 418.4 351.13 417.8 352.76 C 415.62 361.09 414.27 369.12 417.59 377.4 C 418.74 380.9 421.62 382.87 424.92 384.13 C 430.84 386.76 438.12 386.15 444.04 383.89 C 448.1 381.83 452.72 380.04 456.03 377 C 459.61 373.89 462.89 370.45 466.06 366.94 C 468.24 364.43 468.73 361.55 469.52 358.44 C 472.09 358.37 474.66 358.32 477.23 358.35 C 477.23 362.46 476.25 365.58 474 368.98 C 470.69 373.89 467.02 378.67 462.97 382.98 C 459.61 386.59 455.5 388.06 451.24 390.28 C 443.68 393.91 435.42 395.6 427.11 393.87 C 421.41 392.91 416.41 388.28 413.27 383.67 C 410.48 378.19 409.1 372.14 409.61 365.98 C 409.66 354.41 414.7 345.35 419.01 334.87 C 422.92 328.59 427.42 321.89 433.36 317.37 C 441.12 310.97 451.55 307.89 461.51 309.67 Z" transform="matrix(1, 0, 0, 1, -227.608841, -309.83548)"/>
  <path d="M 461.51 316.74 C 464.08 317.6 466.4 319.02 467.74 321.46 C 469.12 323.91 470.79 325.87 470.56 328.86 C 469.58 330.92 466.14 331.33 464.14 331.77 C 457.02 332.94 450.19 335.24 443.1 336.51 C 437.04 337.66 431.69 339.36 425.44 338.6 C 427.88 335.01 430.97 332.07 433.96 328.97 C 437.48 325.13 441.49 321.66 445.84 318.81 C 450.67 315.85 456.09 315.78 461.51 316.74 Z" fill="#ffffff" transform="matrix(1, 0, 0, 1, -227.608841, -309.83548)"/>
  <path d="M 839.92 411.57 C 842.65 416.02 842.78 420.98 841.87 425.99 C 839.97 436 840.78 446.02 838.78 455.94 C 838.75 457.1 837.46 459.36 836.17 458.27 C 833.61 457.43 833.72 454.28 833.62 452.06 C 833.75 443.63 834.42 435.19 834.73 426.76 C 834.72 422.53 833.81 416.87 836.03 413.04 C 836.98 411.43 838.23 411.4 839.92 411.57 Z" fill="#ffffff" transform="matrix(1, 0, 0, 1, -227.608841, -309.83548)"/>
  <path d="M 539.99 447.62 C 543.92 447.22 547.8 449.18 548.68 453.25 C 550.78 459.22 548.6 464.03 548.18 469.97 C 547.62 475.31 545.03 481.38 540.44 484.45 C 537.21 486.37 534.51 486.31 531.01 485.24 C 531.14 484.33 531.28 483.42 531.41 482.5 C 533.8 481.54 537.14 480.91 538.76 478.79 C 542.18 474.61 544.76 470.05 544.63 464.46 C 541.22 464.27 537.82 464.36 534.41 464.48 C 532.84 462.01 531.01 460.19 531.34 457 C 530.84 452.05 535.19 447.81 539.99 447.62 Z" transform="matrix(1, 0, 0, 1, -227.608841, -309.83548)"/>
  <path d="M 125.38 452.14 C 125.39 455.12 124.3 457.99 124.26 460.99 C 124.22 465.11 124.5 469.16 123.87 473.26 C 123.13 478.12 124.84 482.7 124 487.55 C 123.31 492.07 123.87 496.46 124.16 500.98 C 123.98 504.67 123.28 508.28 123.42 512 C 123.79 520.67 123.32 529.33 123.61 538 C 123.79 548.31 122.59 559.99 125.82 569.78 C 122.77 571.04 120.16 571.69 116.84 571.72 C 115.47 567.25 113 563.52 110.91 559.39 C 108.76 554.91 105.76 551.16 102.65 547.33 C 99.44 542.53 95.88 538.29 91.84 534.17 C 85.49 527.63 81.26 520.2 76.25 512.77 C 73.13 508.84 70.52 504.59 67.62 500.51 C 63.17 494.37 59.95 487.23 56.17 480.71 C 55.08 478.67 52.66 478.42 50.67 477.77 C 50.25 486.51 50.32 495.25 50.48 504 C 50.21 522.01 50.48 540.03 50.28 558.05 C 50.08 562.36 51.52 566.29 51.79 570.53 C 48.12 570.65 44.66 570.42 41.15 569.29 C 42.22 565.67 43.99 562.9 43.82 559.06 C 43.77 553.83 43.46 548.74 44.26 543.54 C 44.41 531.69 44.51 519.85 44.29 508 C 44.76 498.44 44.28 488.88 44.66 479.32 C 45.21 473.91 45.68 468.69 45.48 463.23 C 45 459.72 44.01 456.29 43.47 452.79 C 46.38 452.65 49.29 452.5 52.2 452.4 C 55.51 459.23 59.3 465.84 62 472.92 C 65.55 480.66 70.07 487.7 73.91 495.24 C 75.89 499.17 78.91 502.09 81.33 505.7 C 84.27 510.06 87.34 514.33 90.39 518.61 C 93.76 523.25 97.93 527.04 101.62 531.4 C 106.59 536.74 110.4 543.25 113.18 549.97 C 113.88 551.5 115.97 554.3 117.22 551.66 C 117.68 547.2 117.11 542.71 117.87 538.24 C 118.89 533.09 118.1 528.21 118.24 523.01 C 118.36 502.98 118.27 482.98 118.46 462.97 C 118.66 458.91 117.25 455.18 117.18 451.16 C 119.67 450.17 123.72 449.4 125.38 452.14 Z" transform="matrix(1, 0, 0, 1, -227.608841, -309.83548)"/>
  <path d="M 388.3 451.37 C 388.66 466.56 387.71 481.79 388.77 497 C 388.51 504.71 389.58 512.28 389.57 519.99 C 390.12 528.02 389.16 535.98 389.43 544 C 389.37 552.91 388.82 562.2 389.89 571.04 C 387.05 571.68 384.18 572.1 381.28 572.39 C 381.4 566.21 381.34 560.16 382.28 554.04 C 381.81 548.73 382.16 542.86 380.1 537.9 C 373.11 545.98 365.86 553.76 358.71 561.69 C 353.58 568.1 346.59 571.9 339.29 575.33 C 335.38 577.46 330.3 577.01 325.98 576.71 C 321.65 575.31 317.15 572.68 315.54 568.12 C 312.85 562.64 313.27 557.16 313.31 551.25 C 313.44 548.63 313.43 546.19 314.88 543.88 C 317.25 540.08 318.9 535.95 321.01 532.02 C 322.98 528.36 326.35 526.23 328.76 522.78 C 333.82 514.8 342.55 508.74 349.82 502.73 C 355.75 497.65 363.48 496.78 371.01 496.35 C 374.6 496.16 378.94 498.93 382.21 497.33 C 383.96 493.92 382.95 490.96 382.64 487.4 C 382.25 479.26 382.68 471.08 382.31 462.94 C 382.19 459.26 380.02 456.08 380.57 452.59 C 382.2 450.64 386.05 451.58 388.3 451.37 Z" transform="matrix(1, 0, 0, 1, -227.608841, -309.83548)"/>
  <path d="M 419.42 451.17 C 422.15 451.23 424.88 451.3 427.61 451.45 C 427.78 456.29 424.94 460.15 425.31 464.93 C 425.17 474.28 425.38 483.63 425.11 492.99 C 425.94 503.39 424.03 513.6 425.02 524 C 425.67 530.38 424.4 536.64 425.03 543 C 425.52 549.34 425.04 555.65 425.24 561.98 C 425.34 564.42 426.53 566.61 426.58 569 C 424.91 573.01 419.4 572.35 417.56 569.05 C 417.89 565.9 419.52 562.55 419.12 559.43 C 418.74 555.94 418.46 552.47 418.8 548.97 C 419.62 542.33 419.28 535.69 419.43 528.99 C 419.09 522.95 418.28 517.04 418.91 510.96 C 419.86 502.96 419.06 495 419.59 486.97 C 419.45 479.67 419.41 472.41 419.61 465.1 C 419.98 459.93 417.06 456.28 419.42 451.17 Z" transform="matrix(1, 0, 0, 1, -227.608841, -309.83548)"/>
  <path d="M 727.49 460.54 C 729.8 460.13 733.73 459.53 735.12 461.93 C 737.91 465.65 739.36 470.36 741.67 474.4 C 745.3 480.73 749.06 487 752.7 493.32 C 754.8 496.91 755.22 500.93 759.27 502.93 C 765.73 505.4 772.59 504.07 779.26 503.56 C 785.18 503.19 790.98 501.93 796.89 501.53 C 807.03 500.71 817.09 499.58 827.04 497.43 C 827.78 500.19 828.76 502.6 828.06 505.48 C 826.61 512.47 828.16 519.2 827.29 526.21 C 826.44 533.8 826.46 541.39 826.6 549 C 826.67 553.71 825.57 558.25 825.7 562.96 C 825.82 566.64 825.38 570.28 825.34 573.96 C 825.23 578.28 825.59 582.29 824.93 586.52 C 824.05 592.29 824.85 597.93 824.6 604 C 824.43 608.08 824.32 612.14 824.67 616.21 C 818.2 621.06 811.42 625.41 804.5 629.57 C 797.5 633.73 791.21 638.74 784.72 643.6 C 780.13 646.67 775.61 649.8 771.46 653.46 C 768.54 656.02 765.06 657.63 762.07 660.1 C 759.71 662.03 757.31 663.9 754.86 665.73 C 755.08 672.93 753.08 679.83 753.5 687 C 753.41 692.12 752.44 697.16 752.48 702.3 C 752.56 707.82 750.8 712.4 751.96 717.85 C 752.61 719.97 751.24 721.62 750.27 723.42 C 747.4 724.46 745.3 722.39 743.04 720.97 C 739.66 718.53 735.97 716.68 732.4 714.56 C 720.97 707.08 711.87 697.32 702.77 687.18 C 697.68 681.78 695.57 675.46 691.77 669.22 C 689.25 665.07 687.55 660.58 686.04 655.99 C 683.68 648.86 680.79 641.69 679.38 634.33 C 676.71 623.49 674.99 612.4 673.41 601.35 C 672.04 594.07 672.79 586.41 672.64 578.95 C 673.67 569.18 676.23 559.37 678.22 549.75 C 679.64 544.6 680.61 539.65 682.85 534.79 C 686.48 525.78 690.08 516.43 695.18 508.13 C 698.45 501.9 702.5 496.17 705.98 490.05 C 710.24 482.42 715.79 475.86 720.67 468.63 C 722.74 465.97 724.66 462.4 727.49 460.54 Z" fill="#ffffff" transform="matrix(1, 0, 0, 1, -227.608841, -309.83548)"/>
  <path d="M 626.07 488.95 C 629.45 490.67 630.61 493.35 631.43 496.88 C 629.98 497.36 628.52 497.97 627 498.22 C 622.37 497.16 618.2 495.81 613.35 496.63 C 601.94 497.84 591.38 502.78 581.76 508.79 C 577.02 511.82 573.9 516.53 571.91 521.7 C 570.99 524.77 571.65 528.61 574.46 530.48 C 585 531.81 593.88 525.7 603.42 522.48 C 608.94 520.59 613.7 517.23 619.3 516.77 C 623.34 516.44 627.1 516.09 630.71 518.31 C 633.03 519.88 635.98 521.57 637.43 524.03 C 637.87 530.52 638.15 537.37 636.87 543.77 C 634.62 549.84 631.72 555.46 626.66 559.67 C 621.7 564.34 615.9 566.79 609.99 570.02 C 601.18 574.08 591.65 577.01 581.94 574.51 C 577.54 573.24 572.01 571.89 569.55 567.64 C 566.94 563.98 565.37 560.43 566.56 555.87 C 568.36 554.58 570.71 553.85 572.78 553.09 C 574.24 556.29 575.36 560.57 577.97 563.01 C 581.35 565.59 586.77 565.7 590.82 565.23 C 597.2 564.16 603.16 564.03 608.97 560.85 C 617.19 556.86 626.94 551.03 630.17 541.97 C 632.21 537.67 633.22 532.41 632.26 527.71 C 630.46 524.77 625.08 524.24 621.98 524.59 C 613.36 525.07 606.4 528.81 599.18 533.13 C 592.17 537.54 583.28 540.35 574.97 539.43 C 572.28 538.73 568.86 537.09 568.06 534.16 C 566.15 529.92 566.04 525.5 566.35 520.94 C 566.08 514.65 571.1 508.48 575.23 504.19 C 580.59 500.4 586.45 497.04 592.42 494.3 C 597.31 491.95 601.54 489.27 607.09 488.79 C 613.08 488.32 620.45 486.18 626.07 488.95 Z" transform="matrix(1, 0, 0, 1, -227.608841, -309.83548)"/>
  <path d="M 206.73 492.2 C 209.48 493.84 211.08 497.57 212.94 500.12 C 215.67 503.83 217.25 508.2 217.2 512.83 C 215.46 515.68 212.37 517.39 209.25 518.31 C 201.94 520.5 194.47 521.86 187.25 524.34 C 177.37 526.33 167.5 528.1 157.76 530.75 C 157.34 535.26 156.16 539.62 155.49 544.08 C 155.24 549.9 155.67 556.47 158.28 561.77 C 159.92 565.03 163.36 565.33 166.49 566.47 C 172.55 568.47 178.73 567.65 184.6 565.44 C 193.31 561.06 198.94 554.44 205.53 547.54 C 207.59 545.43 207.41 542.36 207.87 539.64 C 209.53 539.36 211.19 539.03 212.86 538.88 C 214.4 539.49 216.72 541.82 215.55 543.57 C 211.24 553.29 202.82 561.17 194.36 567.37 C 188.16 571.61 180.57 574.54 172.99 574.56 C 166.93 574.78 161 573.83 156.33 569.68 C 152.29 565.28 151.11 559.45 149.79 553.78 C 148.85 545.91 149.97 537.71 152.15 530.13 C 154.47 524.45 156.03 518.46 159.62 513.74 C 165.3 505.7 172.05 498.74 179.78 492.67 C 187.86 488.02 198.41 488.3 206.73 492.2 Z" transform="matrix(1, 0, 0, 1, -227.608841, -309.83548)"/>
  <path d="M 274.2 489.99 C 279.71 489.4 286.82 489.93 291.06 493.92 C 294.15 496.62 297.59 499.78 299.3 503.57 C 300.13 506.6 300.65 509.9 300.46 513.06 C 300.29 515.22 298.77 517 296.78 517.76 C 292.54 519.43 287.85 520.01 283.45 521.24 C 273.91 523.69 264.11 524.9 254.65 527.61 C 250.46 528.81 244.83 528.73 241.33 531.36 C 238.54 538.27 237.73 547.04 238.87 554.38 C 240.05 559.96 242.56 562.97 247.83 565.1 C 257.02 568.02 268.11 566.8 275.93 560.91 C 281.22 557.77 284.8 553.22 288.76 548.64 C 290.88 546.11 291.51 543.25 292.47 540.17 C 294.92 539.81 297.28 539.66 299.76 539.94 C 299.76 542.95 300.01 545.48 297.86 547.88 C 291.42 556.08 284.72 565.38 275.46 570.47 C 269.11 573.7 261.53 576.32 254.32 575.42 C 247.91 574.21 241.41 573.45 237.18 567.86 C 230.46 555.29 231.51 540.97 235.91 527.84 C 238.81 521.44 241.35 514.34 246.08 509.18 C 249.45 505.54 252.43 501.44 256.08 498.09 C 261.33 494.5 267.7 490.29 274.2 489.99 Z" transform="matrix(1, 0, 0, 1, -227.608841, -309.83548)"/>
  <path d="M 493.07 489.67 C 496.95 489.04 500.33 490.47 503.58 492.4 C 509.55 496.04 515.45 500.44 517.39 507.51 C 517.83 509.68 519.18 512.59 517.66 514.52 C 516.3 517.31 512.62 518.05 509.91 519 C 504.05 520.54 498.39 522.65 492.64 524.56 C 482.43 527.47 471.81 529.06 461.52 531.71 C 460.54 532.09 458.87 532.37 458.41 533.41 C 454.75 541.97 454.42 551.55 457.7 560.3 C 459.85 565.5 466.78 568 471.98 568.24 C 479.26 568.03 486.62 565.51 492.75 561.62 C 496.12 559.13 498.94 555.85 501.96 552.95 C 505.72 549.35 507.05 544.15 508.55 539.34 C 511.3 539.8 514.05 540.25 516.82 540.6 C 516.69 542.1 516.8 543.81 516.24 545.22 C 513.75 550.99 510.04 556.17 505.19 560.21 C 496.74 567.4 486.04 573.6 474.93 575.17 C 470.75 575.54 465.32 575.75 461.74 573.22 C 457.44 570.63 453.74 567.73 452.16 562.75 C 451.35 559.5 450.51 556.24 449.81 552.96 C 448.85 546.36 450.7 540.12 451.89 533.28 C 453.64 527.53 455.5 521.69 458.25 516.33 C 460.21 512.79 462.85 509.61 465.15 506.28 C 468.45 501.44 473.59 498.48 478.32 495.23 C 482.56 492.12 487.93 490.45 493.07 489.67 Z" transform="matrix(1, 0, 0, 1, -227.608841, -309.83548)"/>
  <path d="M 849.71 498.11 C 853.84 499.66 858.4 500.87 862.25 502.93 C 868.39 506.63 875.1 509.17 881.42 512.55 C 890.14 516.35 898.45 520.91 906.95 525.14 C 905.77 530.48 903.59 535.38 901.51 540.4 C 899.58 545.59 897.7 550.82 896.2 556.16 C 895.42 558.82 895.27 561.7 894.27 564.27 C 888.91 565.58 883.6 565.14 878.48 567.61 C 879.83 569.51 881.25 571.34 882.67 573.18 C 880.18 575.93 877.09 577.89 874.79 580.83 C 872.87 583.21 870.77 585.43 868.69 587.68 C 864.85 592.13 863.45 597.88 861.26 603.2 C 860.28 605.41 860.47 607.59 860.42 609.94 C 860.62 618.28 859.84 626.8 861.36 635.14 C 861.84 638.4 862.5 641.59 862.52 644.9 C 856.28 642.35 852.61 637.57 847.6 633.4 C 842.5 628.7 836.66 624.7 831.32 620.26 C 832.3 610.67 832.95 601.08 833.75 591.48 C 834.81 582.72 834.83 573.85 835.7 565.07 C 837.22 558.38 836.28 551.78 837.18 545.01 C 838.09 537.83 837.33 530.61 838.4 523.46 C 839.38 514.14 839.6 504.71 839.81 495.35 C 843.46 495.39 846.34 496.96 849.71 498.11 Z" fill="#ffffff" transform="matrix(1, 0, 0, 1, -227.608841, -309.83548)"/>
  <path d="M 197.67 497.29 C 202.19 497.5 206.28 500.13 208.1 504.3 C 208.92 506.48 210.57 508.67 209.04 510.92 C 207.56 513.23 203.78 513.35 201.36 513.94 C 195.17 514.95 189.22 516.77 182.99 517.32 C 177.52 517.76 172.2 519.06 166.72 519.43 C 170.92 512.46 176.73 507.13 183.02 502.11 C 187.54 499.1 192.02 496.63 197.67 497.29 Z" fill="#ffffff" transform="matrix(1, 0, 0, 1, -227.608841, -309.83548)"/>
  <path d="M 279.02 497.58 C 282.68 497.47 286.4 499.74 289.45 501.58 C 292.66 504.25 292.97 507.41 292.82 511.37 C 284.23 514.63 274.92 516.06 266.01 518.21 C 260.25 519.47 254.7 520.91 248.74 520.7 C 251.62 514.1 256.08 507.2 262.31 503.33 C 267.25 500.09 272.97 497.25 279.02 497.58 Z" fill="#ffffff" transform="matrix(1, 0, 0, 1, -227.608841, -309.83548)"/>
  <path d="M 503.24 500.67 C 506.33 502.18 508 506.43 510.04 509.08 C 509.33 510.29 508.83 511.93 507.7 512.8 C 506.25 513.62 504.5 513.97 502.89 514.32 C 497.12 515.37 491.39 516.68 485.64 517.84 C 479.74 519.35 473.8 520.49 467.68 520.49 C 471.29 514.17 476.57 508.7 482.4 504.38 C 488.44 499.97 496.04 498.21 503.24 500.67 Z" fill="#ffffff" transform="matrix(1, 0, 0, 1, -227.608841, -309.83548)"/>
  <path d="M 373.19 505.3 C 376.14 505.09 379.79 506.44 381.48 508.9 C 381.58 514.78 381.97 521.91 379.45 527.34 C 375.51 532.03 370.94 536.28 366.63 540.63 C 358.92 550.18 350.48 558.6 339.53 564.4 C 335.84 565.92 331.62 566.89 327.66 567.37 C 325.46 567.63 322.04 567.22 321.19 564.8 C 318.28 558.93 319.16 552.56 321.61 546.72 C 325.35 537.99 331.78 530.12 338.55 523.56 C 343.51 519.12 349.23 515.68 354.26 511.3 C 359.56 508 366.93 505.49 373.19 505.3 Z" fill="#ffffff" transform="matrix(1, 0, 0, 1, -227.608841, -309.83548)"/>
  <path d="M 192.8 630.5 C 195.69 630.26 198 631.45 200.51 632.66 C 199.78 634.8 198.78 636.99 198.46 639.24 C 197.83 653.13 199.23 667.17 197.8 680.99 C 197.73 690.01 197.3 698.98 197.55 708 C 197.16 718.69 197.39 729.35 197.46 740.04 C 197.44 743.22 198.56 746 199.26 749.04 C 198.49 752.24 193.3 751.45 190.78 751.8 C 189.06 743.29 184 737.42 179.13 730.6 C 175.05 724.13 170.19 718.26 166 711.86 C 162.06 707.06 159.27 701.51 155.06 696.95 C 149.45 690.44 145.09 683.04 139.46 676.56 C 136.61 673.32 134.53 669.43 131.95 665.92 C 129.5 662.75 128.59 659.36 124.78 657.46 C 124.54 662 125.3 666.47 124.91 670.99 C 124.43 688.67 125.02 706.33 124.47 724 C 124.57 729.03 124.24 734.06 124.33 739.08 C 124.32 743.02 126.15 746.54 126.71 750.51 C 123.7 750.16 118.04 751.67 116.27 748.54 C 116.08 745.64 118.51 742.83 118.5 740.05 C 118.19 726.03 118.44 711.99 118.76 697.97 C 120.01 684.05 119.02 669.97 119.86 656.03 C 120.97 648.55 120.56 641.62 118.28 634.39 C 121.38 633.66 124.02 632.6 127.2 633.71 C 128.09 635.99 128.48 638.46 129.26 640.8 C 130.92 646.19 133.62 650.66 136.03 655.88 C 137.85 659.92 140.35 663.5 142.45 667.39 C 145.63 673.45 150.93 678.82 154.55 684.45 C 156.51 687.47 158.55 690.44 160.62 693.39 C 164.5 698.86 169.75 702.93 173.33 708.67 C 178.47 716.58 183.71 724.39 189.54 731.81 C 191.06 728.12 191.52 723.92 192.31 720.01 C 192.43 699.52 192.5 678.53 192.59 658 C 192.31 651.07 193.05 643.94 192.19 637.07 C 191.97 634.73 190.02 631.99 192.8 630.5 Z" transform="matrix(1, 0, 0, 1, -227.608841, -309.83548)"/>
  <path d="M 822.37 630.91 C 824 635.75 823.8 640.33 822.88 645.28 C 822.32 653.66 822.9 662.13 822.35 670.52 C 821.66 675.44 821.66 680.41 820.83 685.3 C 820.36 688.37 820.47 691.48 820.66 694.57 C 821.84 694.63 823.03 694.7 824.21 694.77 C 825.75 686.79 825.35 678.82 826.32 670.81 C 827.3 657.94 827.87 645.07 828.81 632.2 C 831.14 632.3 833.16 632.38 834.93 634.11 C 839.03 638.02 843.41 641.6 847.72 645.29 C 855.1 651.73 864.48 656.64 871.47 663.48 C 874.19 667.09 877.56 670.44 877.72 675.13 C 878.24 680.08 879.37 685.07 879.35 690.04 C 878.61 696.03 875.96 702.2 873.84 707.83 C 871.66 712.75 867.55 717.03 863.53 720.54 C 859.72 723.94 855.15 725.75 850.52 727.66 C 845.87 729.81 841.15 730.62 836.26 732.14 C 830.15 734.01 824.08 734.35 817.82 735.35 C 807.74 736.79 797.79 737.45 787.67 735.82 C 783.28 735.03 778.92 734.04 774.53 733.2 C 769.72 732 765.07 730.41 760.16 729.59 C 760.6 711.59 763.11 693.91 763.69 675.93 C 763.81 673.05 763.9 670.24 765.95 667.99 C 771.45 662.04 779.46 658.06 786.24 653.35 C 793.04 649.52 799.53 645.2 806.18 641.13 C 811.49 637.76 816.63 633.32 822.37 630.91 Z" fill="#ffffff" transform="matrix(1, 0, 0, 1, -227.608841, -309.83548)"/>
  <path d="M 410.32 640.56 C 411.89 642.27 412.8 644.56 412.31 646.9 C 411.36 651.59 409.17 655.85 406.18 659.58 C 404.63 659.14 403.08 658.7 401.53 658.28 C 401.44 653.16 400.55 646.71 403.11 642.1 C 404.42 639.52 408.09 638.8 410.32 640.56 Z" transform="matrix(1, 0, 0, 1, -227.608841, -309.83548)"/>
  <path d="M 337.64 648.47 C 336.43 655.85 335.68 663.13 335.54 670.62 C 345.06 670.87 353.57 667.23 362.93 666.61 C 365.58 666.39 367.8 665.37 370.25 664.42 C 371.58 665.56 373.28 666.69 374.14 668.22 C 374.94 670.79 373.84 673.26 371.56 674.6 C 367.82 676.84 362.42 676.55 358.18 677.35 C 350.65 678.71 343.05 678.76 335.53 680.21 C 335.65 697.14 335.46 714.08 335.35 731.01 C 335.46 736.17 334.49 741.23 334.64 746.38 C 337.15 746.48 339.52 747.05 341.84 745.81 C 348.03 742.58 353.98 738.82 359.39 734.4 C 363.39 731.03 366.58 726.95 370.68 723.69 C 373.1 721.79 375.25 719.58 377.61 717.61 C 379.45 716.21 383.01 715.24 384.54 717.58 C 384.97 719.36 385.11 721.41 383.99 722.98 C 380.17 728.57 375.57 733.09 370.5 737.51 C 366.87 741.48 362.39 743.91 358.05 747.01 C 352.11 751.19 345.27 754.64 337.98 755.46 C 334.16 755.58 328.98 753.37 329.26 748.85 C 329.5 734.24 329.5 719.61 329.61 705 C 329.75 700.48 330.46 684.51 330.21 680.51 C 322.26 681.77 314.22 681.61 306.21 680.87 C 306.28 678.42 306.4 675.97 306.59 673.53 C 314.76 673.94 322.83 673.54 330.93 672.46 C 330.76 667.07 330.42 661.7 330.3 656.31 C 330.32 653.97 329.25 651.64 329.48 649.33 C 332.19 648.14 334.75 647.21 337.64 648.47 Z" transform="matrix(1, 0, 0, 1, -227.608841, -309.83548)"/>
  <path d="M 536.63 672.72 C 533.94 679.44 534.82 685.95 534.47 692.96 C 534.21 694.38 534.72 695.25 536.01 695.56 C 541.92 692.78 547.65 689.01 551.96 684.05 C 558.16 677.48 566.32 673.05 575.19 671.36 C 578.41 670.94 581 671.32 583.51 673.51 C 587.55 676.49 587.2 681.49 587.83 685.96 C 589.1 693.35 588.55 700.6 587.8 708 C 587.37 717.97 587.59 727.97 587.28 737.95 C 587.04 744.25 588.26 749.93 583.88 755.17 C 581.99 755 580.11 754.61 578.24 754.28 C 578.38 751.4 578.67 748.61 579.16 745.76 C 580.01 738.47 579.66 731.23 578.76 723.97 C 579.6 715.04 579.38 705.98 579.62 697 C 579.24 692.27 580.67 688 581.44 683.42 C 579.41 681.56 576.77 680.68 574.04 680.57 C 570.77 681.07 567.75 684.22 565.12 686.1 C 555.09 693.38 544.79 700.38 535.26 708.31 C 535.49 715.58 535.05 722.74 534.65 729.99 C 534.88 738.02 534.16 745.97 534.2 753.99 C 531.05 754.41 528.46 754.26 525.37 753.59 C 525.62 749.38 526.46 745.26 526.54 741.04 C 526.76 736.06 526.2 731.1 526.39 726.12 C 526.64 720.39 526.7 714.63 526.67 708.89 C 528.43 698.27 527.2 686.71 527.55 675.92 C 527.58 674 528.18 672.32 528.73 670.5 C 532.01 670.05 533.92 671.05 536.63 672.72 Z" transform="matrix(1, 0, 0, 1, -227.608841, -309.83548)"/>
  <path d="M 273.12 671.38 C 280.72 671.82 287.04 676.57 291.21 682.65 C 293.75 688.96 294.48 696.23 295.26 702.95 C 295.82 714.92 292.73 727.78 285.51 737.49 C 280.23 744.29 273.21 749.93 265.22 753.22 C 257.35 756.1 249.81 758.24 241.54 755.43 C 234.55 752.02 228.34 748.47 224.64 741.3 C 223.52 738.27 223.28 734.89 222.65 731.73 C 222.02 728.65 222.96 726.01 223.3 722.99 C 223.74 719.44 223.32 715.55 224.38 712.18 C 226.03 706.91 227.78 701.26 230.51 696.44 C 233.68 691.23 236.96 685.62 241.47 681.46 C 245.02 678.31 249.61 676.17 253.7 673.79 C 259.33 670.33 266.76 671.03 273.12 671.38 Z" transform="matrix(1, 0, 0, 1, -227.608841, -309.83548)"/>
  <path d="M 483.62 672.46 C 487.72 673.87 491.83 674.87 494.85 678.14 C 501.46 685.15 503.92 695.61 503.82 705.01 C 504.32 716.63 501.06 729.47 493.53 738.53 C 488.41 744.13 482.4 749.23 475.57 752.61 C 472.47 754.15 469.28 756.29 465.94 757.1 C 462.07 758.04 457.87 757.26 453.94 756.9 C 451.37 756.59 448.87 756.65 446.57 755.38 C 441.4 752.61 437.19 747.67 434.52 742.53 C 429.96 728.12 433.01 712.95 438.29 699.2 C 440 694.7 443.2 691.74 446.46 688.39 C 451.2 682 457.63 678.42 464.22 674.27 C 470.07 670.9 477.22 670.82 483.62 672.46 Z" transform="matrix(1, 0, 0, 1, -227.608841, -309.83548)"/>
  <path d="M 408.71 673.53 C 410.88 679.55 407.86 686.72 407.48 693.07 C 407.15 700.38 407.75 707.69 407.24 715 C 407.53 726.7 405.1 736.88 408.38 748.45 C 409.48 751.52 405.3 753.07 403.04 753.43 C 400.29 754.09 399.28 750.69 398.6 748.67 C 398.72 747 399.98 745.42 400.36 743.77 C 402.18 732.85 401.37 721.02 401.63 710 C 401.81 703.26 401.24 696.62 402.27 689.91 C 403.04 684.27 400.18 680.13 401.61 674.6 C 403.19 671.31 406 673.28 408.71 673.53 Z" transform="matrix(1, 0, 0, 1, -227.608841, -309.83548)"/>
  <path d="M 276.61 679.55 C 281.83 680.91 284.32 685.85 286.8 690.18 C 290.17 696.2 289.55 703.21 289.34 709.88 C 288.42 714.73 286.49 719.49 283.7 723.57 C 278.17 733.72 269.59 740.83 259.82 746.68 C 255.78 748.51 250.35 747.82 246.02 747.59 C 241.52 747.42 237.11 745.09 233.74 742.23 C 231.43 739.51 230.75 735.26 230.59 731.81 C 230.57 724.84 230.84 717.33 232.71 710.59 C 234.95 704.32 237.35 697.9 241.8 692.81 C 244.55 689.67 247.04 685.52 250.77 683.63 C 254.28 681.55 258.22 680.31 262.13 679.16 C 266.69 677.72 272.01 678.63 276.61 679.55 Z" fill="#ffffff" transform="matrix(1, 0, 0, 1, -227.608841, -309.83548)"/>
  <path d="M 478.53 680.7 C 483.57 679.7 488.86 680.73 491.91 685.17 C 495.9 692.17 497.36 699.94 497.46 707.94 C 497.19 714.24 493.35 720.86 490.85 726.54 C 489.36 730.05 489.1 733.38 486.27 736.18 C 480.44 742.05 472.9 747.57 464.68 749.33 C 458.68 750.31 452.16 748.64 446.61 746.4 C 442.1 744.43 440.39 740.24 439.01 735.84 C 437.02 725.18 438.42 714.11 443.4 704.45 C 445.77 699.81 449.59 695.88 453.65 692.68 C 461.22 687.56 469.58 682.83 478.53 680.7 Z" fill="#ffffff" transform="matrix(1, 0, 0, 1, -227.608841, -309.83548)"/>
  <path d="M 658.85 738.62 C 664.94 737.02 670.47 738.64 676.54 738.52 C 677.47 741.72 678.278 744.268 679.938 747.158 L 680.953 749.254 C 683.653 745.644 685.3 741.19 688.12 737.64 C 688.77 743.22 689.66 749.2 688.75 754.75 C 688.06 754.74 687.38 754.72 686.69 754.7 C 686.23 753.04 686.856 748.034 686.346 746.384 C 684.736 748.234 682.18 753.57 680.71 755.54 C 678.98 752.26 677.46 748.93 675.56 745.74 C 675.173 749.827 675.12 751.7 675.45 754.88 L 673.07 754.65 C 673.3 751.72 673.249 747.753 673.669 744.843 C 672.812 739.226 673.03 741.95 672.29 740.25 C 670.07 741.06 667.753 739.571 666.573 741.861 C 666.763 746.131 665.76 751.51 665.71 755.82 C 665.03 755.63 664.35 755.43 663.68 755.24 C 663.64 750.8 663.811 745.284 664.261 740.874 C 659.285 740.425 659.85 740.51 658.85 738.62 Z" transform="matrix(1, 0, 0, 1, -227.608841, -309.83548)"/>
</svg>
